<?xml version="1.0" encoding="UTF-8" standalone="no"?>
<!DOCTYPE svg PUBLIC "-//W3C//DTD SVG 1.1//EN"
 "http://www.w3.org/Graphics/SVG/1.1/DTD/svg11.dtd">
<!-- Generated by graphviz version 14.1.2 (20260124.0452)
 -->
<!-- Title: G Pages: 1 -->
<svg width="734pt" height="666pt"
 viewBox="0.00 0.00 734.00 666.00" xmlns="http://www.w3.org/2000/svg" xmlns:xlink="http://www.w3.org/1999/xlink">
<g id="graph0" class="graph" transform="scale(1 1) rotate(0) translate(4 662.25)">
<title>G</title><style>.edge>path:hover{stroke-width:8}</style>
<polygon fill="white" stroke="none" points="-4,4 -4,-662.25 730.13,-662.25 730.13,4 -4,4"/>
<!-- app_py -->
<g id="node1" class="node">
<title>app_py</title><style>.edge>path:hover{stroke-width:8}</style>
<ellipse fill="#995252" stroke="black" cx="373.51" cy="-18" rx="27.21" ry="18"/>
<text xml:space="preserve" text-anchor="middle" x="373.51" y="-14.5" font-family="Helvetica,sans-Serif" font-size="10.00" fill="#ffffff">app.py</text>
</g>
<!-- dotenv -->
<g id="node2" class="node">
<title>dotenv</title><style>.edge>path:hover{stroke-width:8}</style>
<ellipse fill="#7aac49" stroke="black" cx="123.51" cy="-127" rx="27.21" ry="18"/>
<text xml:space="preserve" text-anchor="middle" x="123.51" y="-123.5" font-family="Helvetica,sans-Serif" font-size="10.00" fill="#000000">dotenv</text>
</g>
<!-- dotenv&#45;&gt;app_py -->
<g id="edge1" class="edge">
<title>dotenv&#45;&gt;app_py</title><style>.edge>path:hover{stroke-width:8}</style>
<path fill="none" stroke="black" d="M150.79,-125.74C213.45,-124.38 363.08,-116.58 373.51,-73"/>
<path fill="none" stroke="black" d="M373.51,-72C375.35,-64.27 375.96,-55.73 375.94,-47.8"/>
<polygon fill="#7aac49" stroke="black" points="379.44,-47.8 375.58,-37.94 372.45,-48.06 379.44,-47.8"/>
</g>
<!-- dotenv_ipython -->
<g id="node3" class="node">
<title>dotenv_ipython</title><style>.edge>path:hover{stroke-width:8}</style>
<ellipse fill="#80b34c" stroke="black" cx="47.51" cy="-199" rx="47.51" ry="18"/>
<text xml:space="preserve" text-anchor="middle" x="47.51" y="-195.5" font-family="Helvetica,sans-Serif" font-size="10.00" fill="#000000">dotenv.ipython</text>
</g>
<!-- dotenv_ipython&#45;&gt;dotenv -->
<g id="edge2" class="edge">
<title>dotenv_ipython&#45;&gt;dotenv</title><style>.edge>path:hover{stroke-width:8}</style>
<path fill="none" stroke="black" d="M64.75,-182.12C75.15,-172.54 88.54,-160.2 99.91,-149.73"/>
<polygon fill="#80b34c" stroke="black" points="102.04,-152.53 107.02,-143.18 97.29,-147.38 102.04,-152.53"/>
</g>
<!-- dotenv_main -->
<g id="node4" class="node">
<title>dotenv_main</title><style>.edge>path:hover{stroke-width:8}</style>
<ellipse fill="#85c247" stroke="black" cx="85.51" cy="-275.63" rx="41.19" ry="18"/>
<text xml:space="preserve" text-anchor="middle" x="85.51" y="-272.13" font-family="Helvetica,sans-Serif" font-size="10.00" fill="#000000">dotenv.main</text>
</g>
<!-- dotenv_main&#45;&gt;dotenv -->
<g id="edge3" class="edge">
<title>dotenv_main&#45;&gt;dotenv</title><style>.edge>path:hover{stroke-width:8}</style>
<path fill="none" stroke="black" d="M91.74,-257.38C95.71,-246 100.79,-230.73 104.51,-217 109.94,-196.93 114.81,-173.97 118.26,-156.4"/>
<polygon fill="#85c247" stroke="black" points="121.67,-157.16 120.12,-146.68 114.8,-155.84 121.67,-157.16"/>
</g>
<!-- dotenv_main&#45;&gt;dotenv_ipython -->
<g id="edge4" class="edge">
<title>dotenv_main&#45;&gt;dotenv_ipython</title><style>.edge>path:hover{stroke-width:8}</style>
<path fill="none" stroke="black" d="M76.88,-257.69C72.3,-248.69 66.55,-237.41 61.36,-227.21"/>
<polygon fill="#85c247" stroke="black" points="64.57,-225.8 56.91,-218.47 58.33,-228.97 64.57,-225.8"/>
</g>
<!-- flask -->
<g id="node5" class="node">
<title>flask</title><style>.edge>path:hover{stroke-width:8}</style>
<polygon fill="blue" stroke="black" points="400.51,-145 346.51,-145 346.51,-109 400.51,-109 400.51,-145"/>
<text xml:space="preserve" text-anchor="middle" x="373.51" y="-123.5" font-family="Helvetica,sans-Serif" font-size="10.00" fill="white">flask</text>
</g>
<!-- flask&#45;&gt;app_py -->
<g id="edge5" class="edge">
<title>flask&#45;&gt;app_py</title><style>.edge>path:hover{stroke-width:8}</style>
<path fill="none" stroke="black" d="M371.48,-108.58C370.77,-98.12 370.72,-84.63 373.51,-73"/>
</g>
<!-- flask_app -->
<g id="node6" class="node">
<title>flask_app</title><style>.edge>path:hover{stroke-width:8}</style>
<polygon fill="blue" stroke="black" points="472.38,-586.25 416.63,-586.25 416.63,-550.25 472.38,-550.25 472.38,-586.25"/>
<text xml:space="preserve" text-anchor="middle" x="444.51" y="-564.75" font-family="Helvetica,sans-Serif" font-size="10.00" fill="white">flask.app</text>
</g>
<!-- flask_app&#45;&gt;flask -->
<g id="edge6" class="edge">
<title>flask_app&#45;&gt;flask</title><style>.edge>path:hover{stroke-width:8}</style>
<path fill="none" stroke="black" d="M472.1,-549.81C505.84,-526.1 558.51,-480.26 558.51,-425.25 558.51,-425.25 558.51,-425.25 558.51,-351.25 558.51,-306.3 571.43,-296.57 582.51,-253 588.51,-229.39 608.35,-221.29 596.51,-200"/>
<path fill="none" stroke="black" d="M596.51,-198C576.68,-166.41 470.33,-144.09 411.95,-134.02"/>
<polygon fill="blue" stroke="black" points="412.55,-130.57 402.1,-132.36 411.38,-137.47 412.55,-130.57"/>
</g>
<!-- flask_ctx -->
<g id="node9" class="node">
<title>flask_ctx</title><style>.edge>path:hover{stroke-width:8}</style>
<polygon fill="blue" stroke="black" points="378.51,-514.25 324.51,-514.25 324.51,-478.25 378.51,-478.25 378.51,-514.25"/>
<text xml:space="preserve" text-anchor="middle" x="351.51" y="-492.75" font-family="Helvetica,sans-Serif" font-size="10.00" fill="white">flask.ctx</text>
</g>
<!-- flask_app&#45;&gt;flask_ctx -->
<g id="edge7" class="edge">
<title>flask_app&#45;&gt;flask_ctx</title><style>.edge>path:hover{stroke-width:8}</style>
<path fill="none" stroke="black" d="M412.37,-543.06C403.04,-536.04 392.85,-528.37 383.52,-521.36"/>
<polygon fill="blue" stroke="black" points="410.21,-545.82 420.31,-549.04 414.42,-540.23 410.21,-545.82"/>
<polygon fill="blue" stroke="black" points="385.86,-518.73 375.76,-515.51 381.65,-524.32 385.86,-518.73"/>
</g>
<!-- flask_globals -->
<g id="node10" class="node">
<title>flask_globals</title><style>.edge>path:hover{stroke-width:8}</style>
<polygon fill="blue" stroke="black" points="373.88,-442.25 303.13,-442.25 303.13,-406.25 373.88,-406.25 373.88,-442.25"/>
<text xml:space="preserve" text-anchor="middle" x="338.51" y="-420.75" font-family="Helvetica,sans-Serif" font-size="10.00" fill="white">flask.globals</text>
</g>
<!-- flask_app&#45;&gt;flask_globals -->
<g id="edge8" class="edge">
<title>flask_app&#45;&gt;flask_globals</title><style>.edge>path:hover{stroke-width:8}</style>
<path fill="none" stroke="black" d="M428.79,-540.04C417.96,-521.97 402.79,-498.04 387.51,-478.25 380.34,-468.98 371.87,-459.41 364.01,-451"/>
<polygon fill="blue" stroke="black" points="425.77,-541.8 433.87,-548.62 431.79,-538.23 425.77,-541.8"/>
<polygon fill="blue" stroke="black" points="366.59,-448.63 357.15,-443.81 361.52,-453.46 366.59,-448.63"/>
</g>
<!-- flask_templating -->
<g id="node14" class="node">
<title>flask_templating</title><style>.edge>path:hover{stroke-width:8}</style>
<polygon fill="blue" stroke="black" points="513.01,-217 452.01,-217 452.01,-181 513.01,-181 513.01,-217"/>
<text xml:space="preserve" text-anchor="middle" x="482.51" y="-201.5" font-family="Helvetica,sans-Serif" font-size="10.00" fill="white">flask.</text>
<text xml:space="preserve" text-anchor="middle" x="482.51" y="-189.5" font-family="Helvetica,sans-Serif" font-size="10.00" fill="white">templating</text>
</g>
<!-- flask_app&#45;&gt;flask_templating -->
<g id="edge9" class="edge">
<title>flask_app&#45;&gt;flask_templating</title><style>.edge>path:hover{stroke-width:8}</style>
<path fill="none" stroke="black" d="M457.82,-539.74C461.19,-531.7 464.44,-522.77 466.51,-514.25 489.24,-420.64 480.5,-394.5 484.51,-298.25 485.48,-274.93 484.84,-248.47 484.03,-228.89"/>
<polygon fill="blue" stroke="black" points="454.72,-538.11 453.86,-548.67 461.12,-540.94 454.72,-538.11"/>
<polygon fill="blue" stroke="black" points="487.53,-228.74 483.58,-218.91 480.54,-229.06 487.53,-228.74"/>
</g>
<!-- flask_blueprints -->
<g id="node7" class="node">
<title>flask_blueprints</title><style>.edge>path:hover{stroke-width:8}</style>
<polygon fill="blue" stroke="black" points="345.51,-217 287.51,-217 287.51,-181 345.51,-181 345.51,-217"/>
<text xml:space="preserve" text-anchor="middle" x="316.51" y="-201.5" font-family="Helvetica,sans-Serif" font-size="10.00" fill="white">flask.</text>
<text xml:space="preserve" text-anchor="middle" x="316.51" y="-189.5" font-family="Helvetica,sans-Serif" font-size="10.00" fill="white">blueprints</text>
</g>
<!-- flask_blueprints&#45;&gt;flask -->
<g id="edge10" class="edge">
<title>flask_blueprints&#45;&gt;flask</title><style>.edge>path:hover{stroke-width:8}</style>
<path fill="none" stroke="black" d="M330.6,-180.7C337.15,-172.64 345.09,-162.89 352.35,-153.98"/>
<polygon fill="blue" stroke="black" points="355.02,-156.24 358.62,-146.28 349.59,-151.82 355.02,-156.24"/>
</g>
<!-- flask_config -->
<g id="node8" class="node">
<title>flask_config</title><style>.edge>path:hover{stroke-width:8}</style>
<ellipse fill="#53b6b6" stroke="black" cx="191.51" cy="-199" rx="39.84" ry="18"/>
<text xml:space="preserve" text-anchor="middle" x="191.51" y="-195.5" font-family="Helvetica,sans-Serif" font-size="10.00" fill="#000000">flask.config</text>
</g>
<!-- flask_config&#45;&gt;flask -->
<g id="edge11" class="edge">
<title>flask_config&#45;&gt;flask</title><style>.edge>path:hover{stroke-width:8}</style>
<path fill="none" stroke="black" d="M221.15,-186.6C252.42,-174.57 301.77,-155.59 335.79,-142.51"/>
<polygon fill="#53b6b6" stroke="black" points="336.76,-145.88 344.84,-139.03 334.25,-139.35 336.76,-145.88"/>
</g>
<!-- flask_ctx&#45;&gt;flask -->
<g id="edge12" class="edge">
<title>flask_ctx&#45;&gt;flask</title><style>.edge>path:hover{stroke-width:8}</style>
<path fill="none" stroke="black" d="M259.51,-198C279.74,-173.07 311.37,-154.65 336.18,-142.98"/>
<polygon fill="blue" stroke="black" points="337.29,-146.32 344.96,-139.02 334.41,-139.94 337.29,-146.32"/>
<path fill="none" stroke="black" d="M202.51,-274.63C210.73,-233.71 233.2,-232.41 259.51,-200"/>
<path fill="none" stroke="black" d="M325.7,-477.84C278.6,-443.67 185.05,-363.54 202.51,-276.63"/>
</g>
<!-- flask_ctx&#45;&gt;flask_globals -->
<g id="edge14" class="edge">
<title>flask_ctx&#45;&gt;flask_globals</title><style>.edge>path:hover{stroke-width:8}</style>
<path fill="none" stroke="black" d="M346.22,-466.78C345.4,-462.38 344.56,-457.84 343.74,-453.44"/>
<polygon fill="blue" stroke="black" points="342.75,-467.27 348.02,-476.46 349.63,-465.99 342.75,-467.27"/>
<polygon fill="blue" stroke="black" points="347.23,-453.04 341.96,-443.85 340.34,-454.32 347.23,-453.04"/>
</g>
<!-- flask_globals&#45;&gt;flask -->
<g id="edge15" class="edge">
<title>flask_globals&#45;&gt;flask</title><style>.edge>path:hover{stroke-width:8}</style>
<path fill="none" stroke="black" d="M240.51,-351.25C227,-316.57 195.17,-313.12 202.51,-276.63"/>
<path fill="none" stroke="black" d="M302.66,-409.85C279.24,-398.78 251.09,-380.44 240.51,-353.25"/>
</g>
<!-- flask_globals&#45;&gt;flask_blueprints -->
<g id="edge17" class="edge">
<title>flask_globals&#45;&gt;flask_blueprints</title><style>.edge>path:hover{stroke-width:8}</style>
<path fill="none" stroke="black" d="M240.51,-351.25C228.74,-318.72 280.73,-328.51 297.51,-298.25 309.35,-276.89 313.92,-249.35 315.63,-228.87"/>
<polygon fill="blue" stroke="black" points="319.12,-229.14 316.25,-218.94 312.13,-228.7 319.12,-229.14"/>
</g>
<!-- flask_helpers -->
<g id="node11" class="node">
<title>flask_helpers</title><style>.edge>path:hover{stroke-width:8}</style>
<polygon fill="blue" stroke="black" points="454.26,-293.63 382.76,-293.63 382.76,-257.63 454.26,-257.63 454.26,-293.63"/>
<text xml:space="preserve" text-anchor="middle" x="418.51" y="-272.13" font-family="Helvetica,sans-Serif" font-size="10.00" fill="white">flask.helpers</text>
</g>
<!-- flask_globals&#45;&gt;flask_helpers -->
<g id="edge19" class="edge">
<title>flask_globals&#45;&gt;flask_helpers</title><style>.edge>path:hover{stroke-width:8}</style>
<path fill="none" stroke="black" d="M406.51,-351.25C416.2,-338.21 419.32,-320.31 419.96,-305.31"/>
<polygon fill="blue" stroke="black" points="423.46,-305.59 420.01,-295.57 416.46,-305.55 423.46,-305.59"/>
<path fill="none" stroke="black" d="M357.81,-406.03C372.26,-392.54 391.95,-372.84 406.51,-353.25"/>
</g>
<!-- flask_json -->
<g id="node12" class="node">
<title>flask_json</title><style>.edge>path:hover{stroke-width:8}</style>
<polygon fill="blue" stroke="black" points="288.51,-293.63 230.51,-293.63 230.51,-257.63 288.51,-257.63 288.51,-293.63"/>
<text xml:space="preserve" text-anchor="middle" x="259.51" y="-272.13" font-family="Helvetica,sans-Serif" font-size="10.00" fill="white">flask.json</text>
</g>
<!-- flask_globals&#45;&gt;flask_json -->
<g id="edge20" class="edge">
<title>flask_globals&#45;&gt;flask_json</title><style>.edge>path:hover{stroke-width:8}</style>
<path fill="none" stroke="black" d="M240.51,-351.25C235,-336.03 238.96,-318.5 244.65,-304.26"/>
<polygon fill="blue" stroke="black" points="247.69,-306.04 248.6,-295.49 241.31,-303.17 247.69,-306.04"/>
</g>
<!-- flask_globals&#45;&gt;flask_templating -->
<g id="edge21" class="edge">
<title>flask_globals&#45;&gt;flask_templating</title><style>.edge>path:hover{stroke-width:8}</style>
<path fill="none" stroke="black" d="M406.51,-351.25C427.14,-323.49 446.73,-328.51 463.51,-298.25 475.35,-276.89 479.92,-249.35 481.63,-228.87"/>
<polygon fill="blue" stroke="black" points="485.12,-229.14 482.25,-218.94 478.13,-228.7 485.12,-229.14"/>
</g>
<!-- flask_wrappers -->
<g id="node15" class="node">
<title>flask_wrappers</title><style>.edge>path:hover{stroke-width:8}</style>
<polygon fill="blue" stroke="black" points="378.38,-370.25 298.63,-370.25 298.63,-334.25 378.38,-334.25 378.38,-370.25"/>
<text xml:space="preserve" text-anchor="middle" x="338.51" y="-348.75" font-family="Helvetica,sans-Serif" font-size="10.00" fill="white">flask.wrappers</text>
</g>
<!-- flask_globals&#45;&gt;flask_wrappers -->
<g id="edge22" class="edge">
<title>flask_globals&#45;&gt;flask_wrappers</title><style>.edge>path:hover{stroke-width:8}</style>
<path fill="none" stroke="black" d="M338.51,-394.49C338.51,-390.27 338.51,-385.91 338.51,-381.69"/>
<polygon fill="blue" stroke="black" points="335.01,-394.44 338.51,-404.44 342.01,-394.44 335.01,-394.44"/>
<polygon fill="blue" stroke="black" points="342.01,-381.87 338.51,-371.87 335.01,-381.87 342.01,-381.87"/>
</g>
<!-- flask_helpers&#45;&gt;flask -->
<g id="edge23" class="edge">
<title>flask_helpers&#45;&gt;flask</title><style>.edge>path:hover{stroke-width:8}</style>
<path fill="none" stroke="black" d="M401.75,-257.32C389.74,-243.19 375.36,-222.01 373.51,-200"/>
</g>
<!-- flask_helpers&#45;&gt;flask_app -->
<g id="edge24" class="edge">
<title>flask_helpers&#45;&gt;flask_app</title><style>.edge>path:hover{stroke-width:8}</style>
<path fill="none" stroke="black" d="M419.35,-293.94C421.07,-319.8 426.11,-370.06 440.61,-412.62"/>
<polygon fill="blue" stroke="black" points="437.26,-413.65 443.99,-421.83 443.83,-411.24 437.26,-413.65"/>
</g>
<!-- flask_helpers&#45;&gt;flask_blueprints -->
<g id="edge25" class="edge">
<title>flask_helpers&#45;&gt;flask_blueprints</title><style>.edge>path:hover{stroke-width:8}</style>
<path fill="none" stroke="black" d="M394.59,-257.13C381.16,-247.31 364.21,-234.9 349.53,-224.16"/>
<polygon fill="blue" stroke="black" points="351.63,-221.36 341.49,-218.28 347.5,-227.01 351.63,-221.36"/>
</g>
<!-- flask_helpers&#45;&gt;flask_templating -->
<g id="edge26" class="edge">
<title>flask_helpers&#45;&gt;flask_templating</title><style>.edge>path:hover{stroke-width:8}</style>
<path fill="none" stroke="black" d="M433.35,-257.32C441.29,-248.06 451.23,-236.47 460.09,-226.14"/>
<polygon fill="blue" stroke="black" points="462.68,-228.49 466.54,-218.62 457.37,-223.93 462.68,-228.49"/>
</g>
<!-- flask_json&#45;&gt;flask -->
<g id="edge28" class="edge">
<title>flask_json&#45;&gt;flask</title><style>.edge>path:hover{stroke-width:8}</style>
<path fill="none" stroke="black" d="M253.83,-257.18C249.63,-240.6 246.61,-215.89 259.51,-200"/>
</g>
<!-- flask_signals -->
<g id="node13" class="node">
<title>flask_signals</title><style>.edge>path:hover{stroke-width:8}</style>
<ellipse fill="#22e7e7" stroke="black" cx="444.51" cy="-640.25" rx="42.54" ry="18"/>
<text xml:space="preserve" text-anchor="middle" x="444.51" y="-636.75" font-family="Helvetica,sans-Serif" font-size="10.00" fill="#000000">flask.signals</text>
</g>
<!-- flask_signals&#45;&gt;flask -->
<g id="edge30" class="edge">
<title>flask_signals&#45;&gt;flask</title><style>.edge>path:hover{stroke-width:8}</style>
<path fill="none" stroke="black" d="M596.51,-274.63C582.48,-244.57 614.14,-228.09 596.51,-200"/>
</g>
<!-- flask_signals&#45;&gt;flask_app -->
<g id="edge31" class="edge">
<title>flask_signals&#45;&gt;flask_app</title><style>.edge>path:hover{stroke-width:8}</style>
<path fill="none" stroke="black" d="M444.51,-621.95C444.51,-614.66 444.51,-605.98 444.51,-597.79"/>
<polygon fill="#22e7e7" stroke="black" points="448.01,-597.87 444.51,-587.87 441.01,-597.87 448.01,-597.87"/>
</g>
<!-- flask_signals&#45;&gt;flask_ctx -->
<g id="edge32" class="edge">
<title>flask_signals&#45;&gt;flask_ctx</title><style>.edge>path:hover{stroke-width:8}</style>
<path fill="none" stroke="black" d="M432.63,-622.69C425.27,-612.31 415.69,-598.6 407.51,-586.25 393.84,-565.65 378.96,-541.94 367.98,-524.18"/>
<polygon fill="#22e7e7" stroke="black" points="371.02,-522.44 362.79,-515.76 365.06,-526.11 371.02,-522.44"/>
</g>
<!-- flask_signals&#45;&gt;flask_helpers -->
<g id="edge33" class="edge">
<title>flask_signals&#45;&gt;flask_helpers</title><style>.edge>path:hover{stroke-width:8}</style>
<path fill="none" stroke="black" d="M558.51,-567.25C611.37,-471.35 501.8,-352.39 447.09,-301.55"/>
<polygon fill="#22e7e7" stroke="black" points="449.68,-299.18 439.93,-295.01 444.95,-304.34 449.68,-299.18"/>
<path fill="none" stroke="black" d="M475.3,-627.45C500.95,-616.14 536.69,-596.72 558.51,-569.25"/>
</g>
<!-- flask_signals&#45;&gt;flask_templating -->
<g id="edge34" class="edge">
<title>flask_signals&#45;&gt;flask_templating</title><style>.edge>path:hover{stroke-width:8}</style>
<path fill="none" stroke="black" d="M596.51,-274.63C585.92,-242.67 551.87,-223.18 523.72,-212.17"/>
<polygon fill="#22e7e7" stroke="black" points="525.3,-209.02 514.7,-208.88 522.9,-215.6 525.3,-209.02"/>
<path fill="none" stroke="black" d="M558.51,-567.25C607.44,-505.65 644.71,-422.18 596.51,-276.63"/>
</g>
<!-- flask_templating&#45;&gt;flask -->
<g id="edge35" class="edge">
<title>flask_templating&#45;&gt;flask</title><style>.edge>path:hover{stroke-width:8}</style>
<path fill="none" stroke="black" d="M455.28,-180.52C441.52,-171.68 424.64,-160.84 409.79,-151.3"/>
<polygon fill="blue" stroke="black" points="411.96,-148.54 401.66,-146.08 408.18,-154.43 411.96,-148.54"/>
</g>
<!-- flask_wrappers&#45;&gt;flask -->
<g id="edge37" class="edge">
<title>flask_wrappers&#45;&gt;flask</title><style>.edge>path:hover{stroke-width:8}</style>
<path fill="none" stroke="black" d="M373.51,-198C372.36,-184.42 372.22,-169.3 372.42,-156.6"/>
<polygon fill="blue" stroke="black" points="375.92,-156.89 372.66,-146.81 368.92,-156.72 375.92,-156.89"/>
<path fill="none" stroke="black" d="M354.51,-274.63C355.92,-240.43 376.38,-234.11 373.51,-200"/>
</g>
<!-- flask_wrappers&#45;&gt;flask_app -->
<g id="edge38" class="edge">
<title>flask_wrappers&#45;&gt;flask_app</title><style>.edge>path:hover{stroke-width:8}</style>
<path fill="none" stroke="black" d="M444.51,-425.25C458.66,-468.35 452.47,-522.85 447.86,-550.1"/>
<path fill="none" stroke="black" d="M378.7,-365.5C401.29,-374.68 427.41,-389.72 439.99,-412.84"/>
<polygon fill="blue" stroke="black" points="436.71,-414.08 443.9,-421.87 443.14,-411.3 436.71,-414.08"/>
</g>
<!-- flask_wrappers&#45;&gt;flask_blueprints -->
<g id="edge39" class="edge">
<title>flask_wrappers&#45;&gt;flask_blueprints</title><style>.edge>path:hover{stroke-width:8}</style>
<path fill="none" stroke="black" d="M354.51,-274.63C355.21,-257.44 347.16,-240.21 338.28,-226.63"/>
<polygon fill="blue" stroke="black" points="341.29,-224.83 332.66,-218.69 335.58,-228.87 341.29,-224.83"/>
<path fill="none" stroke="black" d="M343.96,-333.98C348.26,-318.99 353.68,-296.62 354.51,-276.63"/>
</g>
<!-- flask_wrappers&#45;&gt;flask_ctx -->
<g id="edge40" class="edge">
<title>flask_wrappers&#45;&gt;flask_ctx</title><style>.edge>path:hover{stroke-width:8}</style>
<path fill="none" stroke="black" d="M357.98,-370.34C367.33,-379.85 377.55,-392.53 382.51,-406.25 387.94,-421.3 386.69,-426.81 382.51,-442.25 380.04,-451.37 375.56,-460.52 370.77,-468.6"/>
<polygon fill="blue" stroke="black" points="367.91,-466.58 365.47,-476.89 373.8,-470.35 367.91,-466.58"/>
</g>
<!-- flask_wrappers&#45;&gt;flask_helpers -->
<g id="edge42" class="edge">
<title>flask_wrappers&#45;&gt;flask_helpers</title><style>.edge>path:hover{stroke-width:8}</style>
<path fill="none" stroke="black" d="M365.33,-326.23C373.72,-318.41 382.98,-309.77 391.39,-301.92"/>
<polygon fill="blue" stroke="black" points="363.09,-323.53 358.17,-332.91 367.87,-328.65 363.09,-323.53"/>
<polygon fill="blue" stroke="black" points="393.74,-304.51 398.67,-295.13 388.97,-299.4 393.74,-304.51"/>
</g>
<!-- flask_wrappers&#45;&gt;flask_json -->
<g id="edge43" class="edge">
<title>flask_wrappers&#45;&gt;flask_json</title><style>.edge>path:hover{stroke-width:8}</style>
<path fill="none" stroke="black" d="M312.02,-326.23C303.73,-318.41 294.59,-309.77 286.28,-301.92"/>
<polygon fill="blue" stroke="black" points="309.41,-328.58 319.08,-332.91 314.22,-323.5 309.41,-328.58"/>
<polygon fill="blue" stroke="black" points="288.78,-299.46 279.1,-295.14 283.97,-304.55 288.78,-299.46"/>
</g>
<!-- psycopg2 -->
<g id="node16" class="node">
<title>psycopg2</title><style>.edge>path:hover{stroke-width:8}</style>
<polygon fill="blue" stroke="black" points="569.51,-145 511.51,-145 511.51,-109 569.51,-109 569.51,-145"/>
<text xml:space="preserve" text-anchor="middle" x="540.51" y="-123.5" font-family="Helvetica,sans-Serif" font-size="10.00" fill="white">psycopg2</text>
</g>
<!-- psycopg2&#45;&gt;app_py -->
<g id="edge44" class="edge">
<title>psycopg2&#45;&gt;app_py</title><style>.edge>path:hover{stroke-width:8}</style>
<path fill="none" stroke="black" d="M511.2,-122.8C461.53,-116.6 366.8,-101.03 373.51,-73"/>
</g>
<!-- psycopg2__psycopg -->
<g id="node17" class="node">
<title>psycopg2__psycopg</title><style>.edge>path:hover{stroke-width:8}</style>
<ellipse fill="#8547c2" stroke="black" cx="680.51" cy="-275.63" rx="43.13" ry="22.63"/>
<text xml:space="preserve" text-anchor="middle" x="680.51" y="-278.13" font-family="Helvetica,sans-Serif" font-size="10.00" fill="#ffffff">psycopg2.</text>
<text xml:space="preserve" text-anchor="middle" x="680.51" y="-266.13" font-family="Helvetica,sans-Serif" font-size="10.00" fill="#ffffff">_psycopg</text>
</g>
<!-- psycopg2__psycopg&#45;&gt;psycopg2 -->
<g id="edge45" class="edge">
<title>psycopg2__psycopg&#45;&gt;psycopg2</title><style>.edge>path:hover{stroke-width:8}</style>
<path fill="none" stroke="black" d="M667.27,-253.59C654.21,-233.69 632.97,-203.6 610.51,-181 600.08,-170.51 587.49,-160.35 575.89,-151.79"/>
<polygon fill="#8547c2" stroke="black" points="578.24,-149.17 568.08,-146.17 574.15,-154.85 578.24,-149.17"/>
</g>
<!-- psycopg2_extensions -->
<g id="node18" class="node">
<title>psycopg2_extensions</title><style>.edge>path:hover{stroke-width:8}</style>
<polygon fill="blue" stroke="black" points="726.13,-217 662.88,-217 662.88,-181 726.13,-181 726.13,-217"/>
<text xml:space="preserve" text-anchor="middle" x="694.51" y="-201.5" font-family="Helvetica,sans-Serif" font-size="10.00" fill="white">psycopg2.</text>
<text xml:space="preserve" text-anchor="middle" x="694.51" y="-189.5" font-family="Helvetica,sans-Serif" font-size="10.00" fill="white">extensions</text>
</g>
<!-- psycopg2__psycopg&#45;&gt;psycopg2_extensions -->
<g id="edge46" class="edge">
<title>psycopg2__psycopg&#45;&gt;psycopg2_extensions</title><style>.edge>path:hover{stroke-width:8}</style>
<path fill="none" stroke="black" d="M684.63,-252.64C686.06,-245.01 687.69,-236.35 689.2,-228.29"/>
<polygon fill="#8547c2" stroke="black" points="692.62,-229.06 691.02,-218.59 685.74,-227.77 692.62,-229.06"/>
</g>
<!-- psycopg2_extensions&#45;&gt;psycopg2 -->
<g id="edge47" class="edge">
<title>psycopg2_extensions&#45;&gt;psycopg2</title><style>.edge>path:hover{stroke-width:8}</style>
<path fill="none" stroke="black" d="M662.6,-183.5C638.59,-172.59 605.56,-157.57 579.91,-145.91"/>
<polygon fill="blue" stroke="black" points="581.7,-142.88 571.15,-141.93 578.8,-149.25 581.7,-142.88"/>
</g>
</g>
</svg>
